<?xml version="1.0" encoding="UTF-8"?>
<svg width="95px" height="99px" viewBox="0 0 95 99" version="1.1" xmlns="http://www.w3.org/2000/svg" xmlns:xlink="http://www.w3.org/1999/xlink">
    <title>444E4790-E21E-4399-B2C9-5E2378F73A00</title>
    <defs>
        <polygon id="path-1" points="0 0 14.1812246 18 21 18 6.78257917 0"></polygon>
        <path d="M0,3.50037866 C0,5.43232717 1.5662429,7 3.4986746,7 L3.4986746,7 C5.4337571,7 7,5.43232717 7,3.50037866 L7,3.50037866 C7,1.5680515 5.4337571,0 3.4986746,0 L3.4986746,0 C1.5662429,0 0,1.5680515 0,3.50037866 L0,3.50037866 Z" id="path-3"></path>
        <polygon id="path-5" points="0 0 11 13 11 0"></polygon>
    </defs>
    <g id="web" stroke="none" stroke-width="1" fill="none" fill-rule="evenodd">
        <g id="mainpage" transform="translate(-1000.000000, -3872.000000)">
            <g id="about" transform="translate(0.000000, 1536.000000)">
                <g id="advanges" transform="translate(136.000000, 2226.000000)">
                    <g id="03" transform="translate(800.000000, 80.000000)">
                        <g id="icon_savingssystem" transform="translate(64.000000, 30.000000)">
                            <polygon id="Fill-1" fill="#92C5EB" points="15.5026468 64.3483607 14.8645089 59.3544393 0.151404264 61.1566624 4.83038297 97.768989 19.5431882 95.9667659 18.9176275 91.0753591"></polygon>
                            <g id="Group-42">
                                <path d="M32.9792386,29.4775853 C32.9792386,44.9202164 45.4772774,57.43685 60.8923037,57.43685 C76.3073301,57.43685 88.8053688,44.9202164 88.8053688,29.4775853 C88.8053688,14.0349543 76.3073301,1.51832065 60.8923037,1.51832065 C45.4772774,1.51832065 32.9792386,14.0349543 32.9792386,29.4775853 Z" id="Fill-2" fill="#92C5EB"></path>
                                <path d="M92.4536246,76.1739329 C92.160758,77.0935748 90.7224774,77.8186483 89.8630426,78.2517198 C88.7275106,78.8243665 87.5844922,79.3994042 86.4381799,79.9762351 C82.862991,81.7745728 79.165924,83.634479 75.5943286,85.4719695 C74.3917187,86.090942 73.119336,86.7828402 71.7720896,87.5150868 C65.2628441,91.0546768 57.1613984,95.4595133 50.5464455,94.9128689 C46.4546973,94.5727478 42.3991831,93.4035444 38.4772258,92.2731948 L37.4231454,91.9701344 C32.8025604,90.6470098 25.6662569,89.3355413 19.9987785,89.7288623 L16.8497135,65.0868238 C21.0148281,62.9656999 27.5345544,61.341607 31.782019,61.4079575 C36.5637106,61.4835731 41.2834152,63.532369 45.8477027,65.5142167 C49.4450513,67.0758445 53.1645773,68.6906723 56.8685318,69.3012762 C58.5424832,69.5786333 59.7382055,70.1623383 60.6320776,71.1390656 C61.5136721,72.1026422 61.8038436,72.9882122 61.5193617,73.8468833 C61.0132834,75.372646 58.9117107,76.5759213 57.0964167,76.9913592 L40.9767736,73.3124928 L40.4224831,75.7309985 L56.820619,79.4732266 L56.8212179,79.4708356 C62.4177256,81.0644431 67.5683454,79.1316112 72.5503722,77.2606466 C73.4400519,76.9268019 74.3599766,76.5813011 75.2598377,76.265389 C75.8836017,76.0472094 76.5079647,75.8227535 77.1332259,75.5976997 C79.2955879,74.8203229 81.5310167,74.0163461 83.7472805,73.4870365 C85.8353777,72.9852234 90.8326767,72.0826175 92.134406,74.520849 C92.4904576,75.1897338 92.5946678,75.7306996 92.4536246,76.1739329 M94.3288096,73.3558299 C92.7926073,70.4785493 88.9323376,69.6901141 83.1669374,71.0745083 C80.8183147,71.6357977 78.5167064,72.4636846 76.2908601,73.2640749 C75.6721868,73.4864387 75.0547113,73.7085037 74.4363375,73.92489 C73.5101243,74.2500672 72.5773231,74.6000512 71.6753657,74.9386779 C68.2525992,76.2238452 64.9648868,77.4585026 61.622973,77.5738687 C62.6548937,76.7899166 63.4906716,75.797349 63.8790643,74.6257545 C64.2803335,73.4147084 64.3614857,71.5362719 62.4674351,69.4662558 C61.1953518,68.0761829 59.4971446,67.2219949 57.2745922,66.8537795 C53.8736859,66.2930879 50.4566091,64.8100645 46.839197,63.2394704 C42.0509174,61.1607869 37.0997344,59.0109709 31.821547,58.9275844 C27.4177671,58.8651193 21.0402817,60.3768348 16.5176183,62.4892913 L16.097184,59.1974696 C16.0106416,58.5205151 15.3898722,58.0387268 14.7131047,58.1233087 L0,59.9258307 L0.302748638,62.3879723 L13.7880893,60.7360839 L18.1523412,94.8871655 L4.6789787,96.5378584 L4.98172734,99 L19.6945326,97.1977769 C20.0227348,97.1574286 20.3212911,96.9885636 20.5243214,96.7279436 C20.7273516,96.4673236 20.8177869,96.1367666 20.7758633,95.8094973 L20.3144037,92.197878 C25.335659,91.8837592 32.0260745,93.0054414 36.7373943,94.3545682 L37.7878812,94.656732 C41.8263264,95.8205557 46.0022213,97.0244287 50.3410196,97.3851722 C50.7857097,97.421934 51.2336938,97.4395677 51.6861698,97.4392688 C58.7143701,97.4389699 66.5720598,93.1671333 72.9609245,89.6935949 C74.2955938,88.9682225 75.5559984,88.2828995 76.7331546,87.6767787 C80.2945686,85.8443692 83.9865448,83.9874517 87.556643,82.1912062 C88.7041531,81.6140763 89.8474709,81.0387398 90.9836018,80.4657942 C92.1916018,79.8572824 94.2135195,78.8381148 94.8223108,76.9250087 C95.1714749,75.8284321 95.0055771,74.6281456 94.3288096,73.3558299" id="Fill-4" fill="#0B0B45"></path>
                                <polygon id="Fill-6" fill="#104170" points="9.40892459 67.069867 6.94111892 67.3633633 7.39389433 71.1537105 9.86199945 70.8602141"></polygon>
                                <path d="M60.8675987,2.4809708 C75.5735165,2.4809708 87.537927,14.4670993 87.537927,29.1998995 C87.537927,43.9326997 75.5735165,55.9188283 60.8675987,55.9188283 C46.1616809,55.9188283 34.1972704,43.9326997 34.1972704,29.1998995 C34.1972704,14.4670993 46.1616809,2.4809708 60.8675987,2.4809708 M60.8675987,58.3997991 C76.9441203,58.3997991 90.0234005,45.3009547 90.0234005,29.1998995 C90.0234005,13.0991433 76.9441203,0 60.8675987,0 C44.7910771,0 31.7120963,13.0991433 31.7120963,29.1998995 C31.7120963,45.3009547 44.7910771,58.3997991 60.8675987,58.3997991" id="Fill-8" fill="#0B0B45"></path>
                                <path d="M74.4519091,48.8245549 C75.7446548,47.9249377 76.9535532,46.8929184 78.0453648,45.7571891 L76.251931,44.0398468 C75.2730137,45.0581178 74.1892874,45.9831395 73.030398,46.7895073 L74.4519091,48.8245549 Z" id="Fill-10" fill="#0B0B45"></path>
                                <path d="M81.1042639,16.5637453 C80.2717801,15.2289645 79.3021459,13.9703971 78.222612,12.8230116 L76.4109114,14.5212258 C77.3787488,15.5496586 78.2480656,16.6782149 78.9943066,17.8749149 L81.1042639,16.5637453 Z" id="Fill-12" fill="#0B0B45"></path>
                                <path d="M74.6620364,9.71789776 C73.3752799,8.80214128 71.9938956,8.01310828 70.5562139,7.37201897 L69.54256,9.63690233 C70.829616,10.2107445 72.0666631,10.9175866 73.219264,11.7377027 L74.6620364,9.71789776 Z" id="Fill-14" fill="#0B0B45"></path>
                                <path d="M81.9507024,25.7559498 L84.4044337,25.3620311 C84.1537902,23.8066797 83.7465319,22.271353 83.1940381,20.7987902 L80.8663772,21.6685198 C81.3610762,22.9874602 81.7261114,24.3628882 81.9507024,25.7559498" id="Fill-16" fill="#0B0B45"></path>
                                <path d="M65.8140802,52.5616722 C67.3574694,52.2352994 68.8739077,51.7520167 70.3214714,51.1249746 L69.3323728,48.8496306 C68.036932,49.4103222 66.680103,49.842796 65.2987188,50.1350968 L65.8140802,52.5616722 Z" id="Fill-18" fill="#0B0B45"></path>
                                <path d="M47.689199,49.1006865 C49.0041043,49.975497 50.409445,50.7208941 51.8668907,51.3162553 L52.8083761,49.0202889 C51.5036522,48.4873927 50.2453438,47.8203012 49.0678882,47.036648 L47.689199,49.1006865 Z" id="Fill-20" fill="#0B0B45"></path>
                                <path d="M82.2239847,29.197389 C82.2239847,30.4284598 82.1188761,31.6619216 81.911953,32.8643003 L84.3614919,33.2845201 C84.5923714,31.9437618 84.7094582,30.5689316 84.7094582,29.197389 C84.7094582,28.9953487 84.7061642,28.7930096 84.7028702,28.5912682 L82.2176962,28.6319153 C82.2206907,28.8205062 82.2239847,29.0087981 82.2239847,29.197389" id="Fill-22" fill="#0B0B45"></path>
                                <path d="M78.871081,40.713475 L80.966964,42.0467614 C81.815319,40.7185559 82.5334112,39.3009864 83.1017761,37.8344012 L80.7836978,36.939566 C80.2746249,38.2537244 79.6310969,39.5233502 78.871081,40.713475" id="Fill-24" fill="#0B0B45"></path>
                                <path d="M45.790986,44.3536967 C44.7920054,43.3557492 43.8879518,42.2549884 43.104279,41.0816007 L41.0362453,42.4573276 C41.9103534,43.7664051 42.9186172,44.9944871 44.0328879,46.1072029 L45.790986,44.3536967 Z" id="Fill-26" fill="#0B0B45"></path>
                                <path d="M39.9467994,24.8742054 L37.5116343,24.3774733 C37.1975064,25.9119034 37.0340041,27.4905671 37.0259189,29.0698286 L39.5113924,29.0826803 C39.5185793,27.6654097 39.665312,26.2496334 39.9467994,24.8742054" id="Fill-28" fill="#0B0B45"></path>
                                <path d="M39.9023304,33.2964453 L37.4620745,33.7668763 C37.7609303,35.3126637 38.2164008,36.834541 38.8150106,38.2897689 L41.1142233,37.3477113 C40.5779,36.0440136 40.1703423,34.6811384 39.9023304,33.2964453" id="Fill-30" fill="#0B0B45"></path>
                                <path d="M66.0641249,5.88711267 C64.5303182,5.54549725 62.950695,5.35600978 61.3686761,5.32313341 L61.3171699,7.80350645 C62.7344887,7.83279631 64.1497114,8.00255796 65.5230103,8.30860712 L66.0641249,5.88711267 Z" id="Fill-32" fill="#0B0B45"></path>
                                <path d="M43.2323258,17.1238392 L41.1792648,15.7256966 C40.2898846,17.0270033 39.5274731,18.4209616 38.9135911,19.8696142 L41.2023229,20.8361797 C41.7527205,19.5384595 42.435477,18.2894561 43.2323258,17.1238392" id="Fill-34" fill="#0B0B45"></path>
                                <path d="M56.4033589,52.6582988 C57.8643981,52.9356559 59.3664626,53.0764266 60.8676286,53.0764266 L61.1146787,53.075231 L61.08653,50.594858 L60.8676286,50.5957546 C59.522179,50.5957546 58.1764298,50.4699278 56.8681125,50.2212628 L56.4033589,52.6582988 Z" id="Fill-36" fill="#0B0B45"></path>
                                <path d="M49.2589702,11.2324227 L47.9027401,9.15373917 C46.5830436,10.0112148 45.342403,11.0049779 44.2146568,12.1078309 L45.9538894,13.8798675 C46.9648482,12.891783 48.0767233,12.0008332 49.2589702,11.2324227" id="Fill-38" fill="#0B0B45"></path>
                                <path d="M57.0924639,8.13158278 L56.6549607,5.68976476 C55.101989,5.96712181 53.5705779,6.40198659 52.1038491,6.98270292 L53.0204798,9.2885323 C54.3329895,8.76908558 55.702695,8.37964998 57.0924639,8.13158278" id="Fill-40" fill="#0B0B45"></path>
                            </g>
                            <circle id="Oval" fill="#0B0B45" cx="61" cy="29" r="19"></circle>
                            <g id="Group-48" transform="translate(50.000000, 20.000000)">
                                <mask id="mask-2" fill="white">
                                    <use xlink:href="#path-1"></use>
                                </mask>
                                <g id="Clip-47"></g>
                                <polygon id="Fill-46" fill="#FFFFFF" mask="url(#mask-2)" points="0 18 22 18 22 0 0 0"></polygon>
                            </g>
                            <g id="Group-51" transform="translate(50.000000, 31.000000)">
                                <mask id="mask-4" fill="white">
                                    <use xlink:href="#path-3"></use>
                                </mask>
                                <g id="Clip-50"></g>
                                <polygon id="Fill-49" fill="#92C5EB" mask="url(#mask-4)" points="0 7 7 7 7 0 0 0"></polygon>
                            </g>
                            <g id="Group-54" transform="translate(61.000000, 20.000000)">
                                <mask id="mask-6" fill="white">
                                    <use xlink:href="#path-5"></use>
                                </mask>
                                <g id="Clip-53"></g>
                                <polygon id="Fill-52" fill="#8B9916" mask="url(#mask-6)" points="0 14 11 14 11 0 0 0"></polygon>
                            </g>
                        </g>
                    </g>
                </g>
            </g>
        </g>
    </g>
</svg>