<svg width="89" height="103" viewBox="0 0 89 103" xmlns="http://www.w3.org/2000/svg" xmlns:xlink="http://www.w3.org/1999/xlink">
    <defs>
        <path id="kh9qmgnsla" d="M0 103h89V0H0z"/>
        <path id="oakf84t7mc" d="m0 0 10.805 13H16L5.168 0z"/>
        <path d="M0 3a3 3 0 0 0 6 0 3 3 0 1 0-6 0z" id="ts0peca1te"/>
        <path id="bgrqnfwhag" d="m0 0 8 10V0z"/>
    </defs>
    <g fill="none" fill-rule="evenodd">
        <path fill="#92C5EB" d="M87.75 26.381v11.623l-10.003 5.808v-11.62z"/>
        <path fill="#92C5EB" d="M77.748 32.192v11.62l-10.003-5.808V26.387zM87.75 64.996V76.62l-10.003 5.812.004-11.623z"/>
        <path fill="#92C5EB" d="m77.75 70.808-.002 11.623-10.003-5.812V65.003zM54.5 84.315v11.623L44.5 101.75l.003-11.623zM44.502 90.127l-.004 11.623-10.002-5.812V84.315zM21.255 65.003v11.616l-10.003 5.812V70.779z"/>
        <path fill="#92C5EB" d="M11.252 70.779V82.43L1.25 76.62V64.996zM11.252 32.192v11.62L1.25 38.004V26.381z"/>
        <path fill="#92C5EB" d="M21.255 26.387v11.617l-10.003 5.808v-11.62zM44.498 12.938v11.558l-10.002-5.811V7.062h.003zM54.5 7.062v11.623L44.5 24.497V12.938l.003.003z"/>
        <path d="m44.499 2.696 7.524 4.372-7.52 4.423-7.526-4.423 7.522-4.372zm1.25 19.629v-8.666l7.502-4.412v8.718l-7.503 4.36zM35.745 9.245l7.503 4.409v8.67l-7.503-4.359v-8.72zm-1.878 10.521 10.003 5.812a1.25 1.25 0 0 0 1.255 0l10.002-5.812a1.25 1.25 0 0 0 .623-1.081V7.062a1.25 1.25 0 0 0-.623-1.081L45.126.169a1.25 1.25 0 0 0-1.255 0l-9.943 5.779a1.25 1.25 0 0 0-.682 1.114v11.623c0 .445.237.857.622 1.081zM12.502 41.64v-8.728l7.503-4.354v8.726l-7.503 4.357zM2.5 28.554l7.502 4.36v8.728L2.5 37.284v-8.73zm8.752-6.538 7.519 4.369-7.518 4.363-7.515-4.366 7.514-4.366zm10.63 3.285L11.88 19.489a1.25 1.25 0 0 0-1.255 0L.622 25.3A1.25 1.25 0 0 0 0 26.381v11.623c0 .446.237.858.622 1.081l10.003 5.809a1.248 1.248 0 0 0 1.255 0l10.002-5.809a1.25 1.25 0 0 0 .623-1.08V26.38a1.25 1.25 0 0 0-.622-1.081zM12.502 80.259V71.5l7.503-4.333V75.9l-7.503 4.359zM2.5 67.163l7.502 4.338v8.758L2.5 75.899v-8.736zm8.752-6.532 7.514 4.365-7.513 4.34-7.51-4.342 7.51-4.363zm10.63 3.284L11.88 58.104a1.25 1.25 0 0 0-1.255 0L.622 63.915A1.25 1.25 0 0 0 0 64.997v11.622c0 .446.237.858.622 1.081l10.003 5.812a1.246 1.246 0 0 0 1.255 0L21.883 77.7a1.25 1.25 0 0 0 .622-1.08V64.996a1.25 1.25 0 0 0-.622-1.082zM78.998 80.258l.003-8.73 7.5-4.36V75.9l-7.503 4.358zM68.995 67.173l7.506 4.355-.003 8.731-7.503-4.36v-8.726zm8.753-6.542 7.514 4.365-7.512 4.366L70.23 65l7.518-4.368zm10.63 3.285-10.002-5.812a1.25 1.25 0 0 0-1.256 0l-10.003 5.812a1.26 1.26 0 0 0-.622 1.087v11.616c0 .446.237.858.622 1.081l10.003 5.812a1.246 1.246 0 0 0 1.256 0L88.378 77.7A1.25 1.25 0 0 0 89 76.62V64.995a1.25 1.25 0 0 0-.622-1.08zM45.749 99.578l.002-8.732 7.5-4.358v8.73l-7.502 4.36zm-10.003-13.09 7.505 4.358-.002 8.732-7.503-4.36v-8.73zm8.752-6.538 7.514 4.366-7.51 4.365-7.517-4.366 7.513-4.365zm10.63 3.284-10.002-5.811a1.25 1.25 0 0 0-1.255 0l-10.003 5.811a1.25 1.25 0 0 0-.622 1.081v11.623c0 .446.237.858.622 1.081l10.003 5.812a1.246 1.246 0 0 0 1.255 0l10.003-5.812a1.25 1.25 0 0 0 .622-1.08V84.314a1.25 1.25 0 0 0-.622-1.08zM78.998 41.64v-8.728l7.502-4.359v8.731l-7.502 4.357zM68.995 28.559l7.503 4.354v8.729l-7.503-4.357v-8.726zm8.753-6.543 7.513 4.366-7.514 4.366-7.518-4.363 7.519-4.369zm10.63 3.285-10.002-5.811a1.25 1.25 0 0 0-1.256 0L67.117 25.3a1.26 1.26 0 0 0-.622 1.088v11.616c0 .446.237.858.623 1.081l10.002 5.809a1.248 1.248 0 0 0 1.255 0l10.003-5.809a1.25 1.25 0 0 0 .622-1.08V26.38a1.25 1.25 0 0 0-.622-1.081z" fill="#0B0B45"/>
        <mask id="12hjqubl1b" fill="#fff">
            <use xlink:href="#kh9qmgnsla"/>
        </mask>
        <path fill="#0B0B45" mask="url(#12hjqubl1b)" d="M43.248 34.864h2.5v-7.322h-2.5zM30.794 42.102l-6.305-3.663-1.256 2.163 6.305 3.662zM30.794 60.899l-1.256-2.163-6.305 3.663 1.256 2.162zM43.252 75.458h2.5v-7.322h-2.5zM58.204 60.899l6.308 3.66 1.254-2.164-6.308-3.66zM58.204 42.098l1.254 2.164 6.308-3.66-1.254-2.163zM65.4 23.574l-7.299-4.243-1.256 2.161 7.3 4.244zM76.498 55.735h2.5v-8.47h-2.5zM56.845 81.508l1.256 2.162 7.3-4.243-1.257-2.162zM23.599 79.427l7.296 4.243 1.257-2.162-7.296-4.243zM32.152 21.492l-1.257-2.162-7.296 4.244 1.257 2.161zM10.002 55.735h2.5v-8.47h-2.5z"/>
        <circle fill="#0B0B45" cx="44.5" cy="51.5" r="14.5"/>
        <g transform="translate(36 44)">
            <mask id="if6wfr7jld" fill="#fff">
                <use xlink:href="#oakf84t7mc"/>
            </mask>
            <path fill="#FFF" mask="url(#if6wfr7jld)" d="M-1.143 13H16V0H-1.143z"/>
        </g>
        <g transform="translate(36 52)">
            <mask id="yfox0rs86f" fill="#fff">
                <use xlink:href="#ts0peca1te"/>
            </mask>
            <path fill="#92C5EB" mask="url(#yfox0rs86f)" d="M0 6h6V0H0z"/>
        </g>
        <g transform="translate(44 44)">
            <mask id="59jyrzk2vh" fill="#fff">
                <use xlink:href="#bgrqnfwhag"/>
            </mask>
            <path fill="#8B9916" mask="url(#59jyrzk2vh)" d="M0 10h8V0H0z"/>
        </g>
    </g>
</svg>
