<?xml version="1.0" encoding="UTF-8"?>
<svg width="97px" height="72px" viewBox="0 0 97 72" version="1.1" xmlns="http://www.w3.org/2000/svg" xmlns:xlink="http://www.w3.org/1999/xlink">
    <title>DA57244B-9327-4688-AE60-9032582B87FE</title>
    <defs>
        <polygon id="path-1" points="0 72 97 72 97 0 0 0"></polygon>
    </defs>
    <g id="web" stroke="none" stroke-width="1" fill="none" fill-rule="evenodd">
        <g id="mainpage" transform="translate(-600.000000, -3811.000000)">
            <g id="about" transform="translate(0.000000, 1536.000000)">
                <g id="advanges" transform="translate(136.000000, 2226.000000)">
                    <g id="02" transform="translate(400.000000, 0.000000)">
                        <g id="icon_smartcontrats" transform="translate(64.000000, 49.000000)">
                            <polygon id="Fill-1" fill="#92C5EB" points="95.7533524 9.45643131 95.7533524 9.45973519 81.6022496 17.6695818 81.5959412 17.6662779 67.4421349 9.45643131 81.5959412 1.24658474"></polygon>
                            <polygon id="Fill-2" fill="#92C5EB" points="29.5483726 9.46288889 15.4005742 17.6727355 1.24646739 9.46288889 1.24646739 9.45958501 15.3975702 1.24973844"></polygon>
                            <polygon id="Fill-3" fill="#92C5EB" points="15.4070327 17.6759793 15.4070327 34.0989763 1.24962156 25.882522 1.24661759 9.46282882 15.4007244 17.6726754"></polygon>
                            <polygon id="Fill-4" fill="#92C5EB" points="15.4006643 17.6727355 29.5484627 9.46288889 29.5514667 9.46619278 29.554771 25.8891898 15.4069726 34.098736 15.4069726 17.6760393"></polygon>
                            <polygon id="Fill-5" fill="#92C5EB" points="81.5960314 17.6662478 81.5960314 34.085941 67.4386202 25.8760944 67.4386202 9.45640127 67.4419246 9.45640127"></polygon>
                            <polygon id="Fill-6" fill="#92C5EB" points="81.6023998 17.6694917 95.7535026 9.45964508 95.7535026 25.8760343 81.5960914 34.0858809 81.5960914 17.6661878"></polygon>
                            <polygon id="Fill-7" fill="#92C5EB" points="62.6555787 46.1240257 62.6555787 46.1273296 48.5047763 54.3371762 48.4981676 54.3338723 34.3443612 46.1240257 48.4981676 37.9141792"></polygon>
                            <polygon id="Fill-8" fill="#92C5EB" points="48.4982577 54.3338423 48.4982577 70.7535354 34.3408466 62.5436888 34.3408466 46.1239957 34.3441509 46.1239957"></polygon>
                            <polygon id="Fill-9" fill="#92C5EB" points="48.5046261 54.3370861 62.6554285 46.1272395 62.6554285 62.5436288 48.4983178 70.7534753 48.4983178 54.3337822"></polygon>
                            <g id="Group-27">
                                <path d="M82.842679,31.9220484 L82.842679,18.3911496 L94.5067949,11.6238981 L94.5067949,25.1581008 L82.842679,31.9220484 Z M68.6852678,11.6187921 L80.3493837,18.3842415 L80.3493837,31.9220484 L68.6852678,25.1581008 L68.6852678,11.6187921 Z M81.5960314,2.68779816 L93.2715623,9.45835357 L81.6020393,16.2286086 L69.9262079,9.45655145 L81.5960314,2.68779816 Z M96.3788691,8.37828448 L82.2214579,0.168437915 C81.834847,-0.0559257127 81.3575161,-0.0559257127 80.9706048,0.168437915 L66.873273,8.34554602 C66.4689386,8.55158812 66.1919726,8.97178184 66.1919726,9.45655145 L66.1919726,25.8759442 C66.1919726,26.3204665 66.4286854,26.7313493 66.8131936,26.9542112 L80.9706048,35.1640578 C81.1640604,35.2763898 81.3800459,35.3322554 81.5960314,35.3322554 C81.8120168,35.3322554 82.0283027,35.2763898 82.2214579,35.1640578 L96.3788691,26.9542112 C96.7633773,26.7313493 96.9997897,26.3204665 96.9997897,25.8759442 L96.9997897,9.45655145 C96.9997897,9.01202913 96.7633773,8.60114635 96.3788691,8.37828448 L96.3788691,8.37828448 Z" id="Fill-10" fill="#0B0B45"></path>
                                <path d="M49.7449053,68.589763 L49.7449053,55.0585638 L61.4090212,48.2916126 L61.4090212,61.8258153 L49.7449053,68.589763 Z M35.5877946,48.2862063 L47.2516101,55.051956 L47.2516101,68.589763 L35.5877946,61.8258153 L35.5877946,48.2862063 Z M48.4982577,39.3552124 L60.1740891,46.1257678 L48.5042656,52.8963232 L36.8287347,46.1239657 L48.4982577,39.3552124 Z M63.2810954,45.0456987 L49.1236843,36.8358521 C48.7367729,36.6114885 48.2597425,36.6114885 47.8728311,36.8358521 L33.7754994,45.0129602 C33.371165,45.2190023 33.0944993,45.6391961 33.0944993,46.1239657 L33.0944993,62.5436588 C33.0944993,62.9881811 33.3309118,63.3990639 33.7157204,63.6219258 L47.8728311,71.8317723 C48.0662868,71.9441043 48.2822722,71.99997 48.4982577,71.99997 C48.7142432,71.99997 48.930529,71.9441043 49.1236843,71.8317723 L63.2810954,63.6219258 C63.6656036,63.3990639 63.9023165,62.9881811 63.9023165,62.5436588 L63.9023165,46.1239657 C63.9023165,45.6797437 63.6656036,45.2688609 63.2810954,45.0456987 L63.2810954,45.0456987 Z" id="Fill-12" fill="#0B0B45"></path>
                                <path d="M48.5047162,15.5090231 C49.6852765,15.5090231 50.6453454,16.4767602 50.6453454,17.6661577 C50.6453454,18.8558556 49.6852765,19.8235927 48.5047162,19.8235927 C47.322654,19.8235927 46.3607827,18.8558556 46.3607827,17.6661577 C46.3607827,16.4767602 47.322654,15.5090231 48.5047162,15.5090231 M48.5047162,22.3165219 C51.0598933,22.3165219 53.1386407,20.2302706 53.1386407,17.6661577 C53.1386407,15.1023453 51.0598933,13.0160939 48.5047162,13.0160939 C45.9477368,13.0160939 43.8674874,15.1023453 43.8674874,17.6661577 C43.8674874,20.2302706 45.9477368,22.3165219 48.5047162,22.3165219" id="Fill-14" fill="#0B0B45"></path>
                                <mask id="mask-2" fill="white">
                                    <use xlink:href="#path-1"></use>
                                </mask>
                                <g id="Clip-17"></g>
                                <polygon id="Fill-16" fill="#0B0B45" mask="url(#mask-2)" points="47.25155 31.0844242 49.7448452 31.0844242 49.7448452 24.4832678 47.25155 24.4832678"></polygon>
                                <polygon id="Fill-18" fill="#0B0B45" mask="url(#mask-2)" points="55.2889726 18.9192301 63.4561668 18.9192301 63.4561668 16.4263009 55.2889726 16.4263009"></polygon>
                                <polygon id="Fill-19" fill="#0B0B45" mask="url(#mask-2)" points="33.5375249 18.9192301 41.707723 18.9192301 41.707723 16.4263009 33.5375249 16.4263009"></polygon>
                                <path d="M16.6537104,31.9343328 L16.6537104,18.3869146 L28.30551,11.6253698 L28.3079131,25.1712863 L16.6537104,31.9343328 Z M2.49359566,11.6274723 L14.1604151,18.3944234 L14.1604151,31.9343328 L2.49629923,25.1649789 L2.49359566,11.6274723 Z M15.3971496,2.69107201 L27.0648703,9.46282882 L15.400454,16.2315821 L3.72792701,9.46102671 L15.3971496,2.69107201 Z M30.4332221,8.58489725 L30.4299177,8.58159337 C30.3533164,8.50530373 30.2674029,8.43922609 30.1742798,8.38486221 L16.023177,0.171711761 C15.6365661,-0.052351513 15.1586344,-0.0526518659 14.771723,0.171711761 L0.620920639,8.38155833 C0.236412454,8.60472055 5.68434189e-14,9.01860686 5.68434189e-14,9.46312918 L0.0030039702,25.8828223 C0.0030039702,26.3270443 0.239716822,26.7376267 0.62392461,26.9607889 L14.7813357,35.1769429 C14.9747914,35.2892749 15.1907769,35.3454409 15.4070627,35.3454409 C15.6230482,35.3454409 15.839334,35.2892749 16.0327897,35.1769429 L30.1805882,26.9670963 C30.5650963,26.7442345 30.8015088,26.3330513 30.8015088,25.8888294 L30.7982044,9.46583235 C30.7982044,9.13544415 30.6666305,8.81857182 30.4332221,8.58489725 L30.4332221,8.58489725 Z" id="Fill-20" fill="#0B0B45" mask="url(#mask-2)"></path>
                                <path d="M15.4006342,53.0843741 C14.2203744,53.0843741 13.2600051,52.116637 13.2600051,50.9269392 C13.2600051,49.7375416 14.2203744,48.7698045 15.4006342,48.7698045 C16.5826965,48.7698045 17.5445678,49.7375416 17.5445678,50.9269392 C17.5445678,52.116637 16.5826965,53.0843741 15.4006342,53.0843741 M15.4006342,46.2768753 C12.8454572,46.2768753 10.7667098,48.3631267 10.7667098,50.9269392 C10.7667098,53.491052 12.8454572,55.5773033 15.4006342,55.5773033 C17.9576137,55.5773033 20.037863,53.491052 20.037863,50.9269392 C20.037863,48.3631267 17.9576137,46.2768753 15.4006342,46.2768753" id="Fill-21" fill="#0B0B45" mask="url(#mask-2)"></path>
                                <polygon id="Fill-22" fill="#0B0B45" mask="url(#mask-2)" points="22.1849207 52.1800115 30.3551188 52.1800115 30.3551188 49.6870823 22.1849207 49.6870823"></polygon>
                                <polygon id="Fill-23" fill="#0B0B45" mask="url(#mask-2)" points="14.1604151 44.1104298 16.6537104 44.1104298 16.6537104 37.508973 14.1604151 37.508973"></polygon>
                                <path d="M81.605614,53.0874377 C80.4235517,53.0874377 79.4619809,52.1181989 79.4619809,50.9269992 C79.4619809,49.7376017 80.4235517,48.7698646 81.605614,48.7698646 C82.7858739,48.7698646 83.7462432,49.7376017 83.7462432,50.9269992 C83.7462432,52.1181989 82.7858739,53.0874377 81.605614,53.0874377 M81.605614,46.2769354 C79.0486346,46.2769354 76.9686856,48.3631867 76.9686856,50.9269992 C76.9686856,53.4929142 79.0486346,55.5803669 81.605614,55.5803669 C84.1607911,55.5803669 86.2395384,53.4929142 86.2395384,50.9269992 C86.2395384,48.3631867 84.1607911,46.2769354 81.605614,46.2769354" id="Fill-24" fill="#0B0B45" mask="url(#mask-2)"></path>
                                <polygon id="Fill-25" fill="#0B0B45" mask="url(#mask-2)" points="66.6511895 52.1670963 74.8213876 52.1670963 74.8213876 49.6741671 66.6511895 49.6741671"></polygon>
                                <polygon id="Fill-26" fill="#0B0B45" mask="url(#mask-2)" points="80.352598 44.0975146 82.8458932 44.0975146 82.8458932 37.4993618 80.352598 37.4993618"></polygon>
                            </g>
                        </g>
                    </g>
                </g>
            </g>
        </g>
    </g>
</svg>