<svg viewBox="0 0 24 25" xmlns="http://www.w3.org/2000/svg">
    <path d="M20.824 24.5A3.176 3.176 0 0 0 24 21.324V3.676A3.176 3.176 0 0 0 20.824.5H3.176A3.176 3.176 0 0 0 0 3.676v17.648A3.176 3.176 0 0 0 3.176 24.5h17.648zm-13.19-1.488c-1.696-.085-3.193-.473-4.433-1.71-1.24-1.238-1.63-2.742-1.711-4.434-.099-1.749-.099-6.99 0-8.736.085-1.696.468-3.199 1.71-4.433 1.243-1.235 2.745-1.626 4.434-1.706 1.748-.1 6.988-.1 8.736 0 1.696.085 3.198.473 4.433 1.71 1.236 1.238 1.63 2.741 1.711 4.437.044.784.069 2.275.073 3.838v1.046c-.004 1.563-.029 3.056-.073 3.844-.085 1.696-.472 3.199-1.71 4.433-1.239 1.235-2.74 1.63-4.434 1.711-1.748.099-6.988.099-8.736 0zm10.61-2.257a3.574 3.574 0 0 0 2.012-2.013c.518-1.302.438-4.295.426-5.933l-.001-.309c0-1.54.127-4.848-.425-6.242l-.003-.001a3.574 3.574 0 0 0-2.013-2.013c-1.302-.514-4.292-.438-5.931-.426L12 3.819c-1.542 0-4.847-.128-6.241.425a3.574 3.574 0 0 0-2.013 2.013c-.547 1.39-.425 4.702-.425 6.242s-.122 4.85.428 6.243a3.574 3.574 0 0 0 2.013 2.013c1.39.548 4.698.425 6.24.425 1.543 0 4.847.128 6.241-.425zm-.591-12.64-.003-.002a1.267 1.267 0 1 1 1.266-1.267c.003.7-.563 1.269-1.263 1.27zM12 17.926c-4.177 0-6.788-4.522-4.7-8.14 2.09-3.617 7.31-3.617 9.4 0 .476.826.726 1.761.726 2.714A5.42 5.42 0 0 1 12 17.926zm3.059-3.662A3.53 3.53 0 0 0 12 8.97c-2.717.001-4.414 2.943-3.055 5.296 1.36 2.353 4.756 2.352 6.114-.002z" />
</svg>
