<svg  viewBox="0 0 25 24" xmlns="http://www.w3.org/2000/svg">
    <path d="M12.9 23.162c5.888 0 10.664-3.434 10.664-7.673 0-.425-.046-.87-.157-1.27C25.93 12.924 25 9.176 22.203 9.176c-.759 0-1.427.313-1.917.804-1.806-1.25-4.24-2.054-6.936-2.14l1.402-6.313 4.461 1.002c0 1.092.89 1.983 1.983 1.983a2.016 2.016 0 0 0 2.008-2.008c0-1.093-.89-2.009-2.008-2.009-.779 0-1.452.47-1.785 1.113L14.484.516c-.248-.066-.491.11-.557.359l-1.538 6.96c-2.676.111-5.083.916-6.894 2.165a2.688 2.688 0 0 0-1.943-.824c-2.812 0-3.733 3.773-1.158 5.063-.091.4-.132.825-.132 1.25 0 4.239 4.776 7.673 10.638 7.673zM8.484 16.49a1.992 1.992 0 0 1-2.008-1.983A2 2 0 0 1 8.484 12.5c1.093 0 1.983.89 1.983 2.008 0 1.093-.89 1.983-1.983 1.983zm8.792.005a1.986 1.986 0 0 1-1.983-1.983 1.995 1.995 0 1 1 1.983 1.983zm-8.837 2.742c-.203-.177-.203-.49 0-.693a.486.486 0 0 1 .667 0c1.407 1.442 6.07 1.467 7.538 0a.486.486 0 0 1 .667 0c.208.202.208.516.005.693-1.841 1.841-7.036 1.841-8.877 0z" />
</svg>
