<svg viewBox="0 0 30 25" xmlns="http://www.w3.org/2000/svg">
    <path d="M20.273 22.354c-2.347-1.538-3.673-2.496-5.951-3.997-2.633-1.735-.926-2.688.574-4.247.393-.408 7.216-6.614 7.348-7.177.016-.07.032-.333-.124-.471-.157-.138-.386-.091-.553-.054-.235.054-3.984 2.532-11.247 7.434-1.065.731-2.028 1.087-2.892 1.069-.952-.021-2.784-.539-4.145-.981C1.613 13.387.286 13.1.4 12.178c.06-.48.722-.971 1.984-1.473 7.774-3.387 12.957-5.62 15.55-6.699C25.342.926 26.88.391 27.884.373c.22-.004.714.051 1.033.31.213.185.348.443.38.722.054.348.069.7.045 1.05-.192 2.017-.69 5.41-1.253 8.918l-.312 1.917a429.531 429.531 0 0 1-1.457 8.337c-.374 1.998-1.11 2.669-1.822 2.734-1.548.143-2.725-1.023-4.224-2.007z" />
</svg>
