<svg viewBox="0 0 174 40" xmlns="http://www.w3.org/2000/svg" xmlns:xlink="http://www.w3.org/1999/xlink">
    <defs>
        <path id="56hlrnbpua" d="M0 0h14.096v14.365H0z"/>
        <path id="mi1zoyk2cc" d="M0 0h39.957v40H0z"/>
        <linearGradient x1="50%" y1="0%" x2="50%" y2="100%" id="b7uvfbacje">
            <stop stop-color="#FFF" offset="0%"/>
            <stop stop-color="#92C5EB" offset="100%"/>
        </linearGradient>
    </defs>
    <g fill="none" fill-rule="evenodd">
        <path d="M47.003 26.422v-13.8h3.44v2.144a4.688 4.688 0 0 1 1.902-1.806c.799-.414 1.696-.621 2.692-.621 3.252 0 4.878 1.89 4.878 5.673v8.41H56.39V18.18c0-1.072-.202-1.853-.606-2.342-.405-.49-1.03-.734-1.875-.734-1.034 0-1.856.324-2.467.973-.61.65-.916 1.51-.916 2.583v7.76h-3.524zM69.209 14.739c-1.034 0-1.87.32-2.51.96-.638.639-1.024 1.504-1.155 2.596h6.935c-.075-1.148-.39-2.028-.944-2.64-.555-.61-1.33-.916-2.326-.916m.507 11.966c-1.56 0-2.904-.292-4.031-.875-1.128-.583-1.997-1.411-2.608-2.484-.61-1.072-.916-2.342-.916-3.81 0-1.43.296-2.68.888-3.753a6.53 6.53 0 0 1 2.453-2.526c1.043-.612 2.231-.917 3.566-.917 1.954 0 3.5.62 4.637 1.862 1.137 1.242 1.706 2.935 1.706 5.08v1.045h-9.867c.263 2.464 1.673 3.697 4.229 3.697.77 0 1.54-.118 2.311-.353a6.349 6.349 0 0 0 2.115-1.115l.986 2.37c-.657.546-1.484.98-2.48 1.299-.997.32-1.993.48-2.989.48M76.2 26.422l5.779-7.14-5.413-6.66h4.116l3.327 4.26 3.326-4.26h4.116l-5.44 6.688 5.807 7.112h-4.144l-3.694-4.657-3.665 4.657z" fill="#0B0B45"/>
        <path fill="#8B9916" d="m83.98 21.765-3.665 4.657H76.2l5.78-7.14-5.413-6.66h4.116l3.327 4.261 2.001 2.427z"/>
        <path d="M98.416 26.705a12.15 12.15 0 0 1-3.27-.424c-1.015-.282-1.86-.687-2.537-1.213l.902-2.315c.695.47 1.475.833 2.34 1.087.864.254 1.729.381 2.593.381.902 0 1.574-.155 2.016-.466.442-.31.663-.72.663-1.227 0-.79-.583-1.299-1.748-1.524l-2.82-.537c-2.386-.451-3.58-1.693-3.58-3.725 0-.903.25-1.684.747-2.342.498-.659 1.189-1.167 2.072-1.524.884-.358 1.899-.537 3.045-.537.977 0 1.917.137 2.82.41.901.272 1.672.682 2.31 1.227l-.958 2.315c-.545-.452-1.198-.81-1.959-1.073-.761-.263-1.49-.395-2.185-.395-.92 0-1.602.16-2.044.48-.441.32-.662.743-.662 1.27 0 .828.535 1.336 1.607 1.524l2.819.536c1.222.226 2.147.64 2.777 1.242.63.602.944 1.41.944 2.427 0 1.373-.535 2.45-1.607 3.231-1.071.781-2.5 1.172-4.285 1.172" fill="#0B0B45"/>
        <path d="M113.107 24.023c1.052 0 1.898-.381 2.537-1.143.64-.762.959-1.886.959-3.373 0-1.505-.32-2.629-.959-3.372-.639-.743-1.485-1.115-2.537-1.115-1.053 0-1.898.372-2.537 1.115-.64.743-.959 1.867-.959 3.372 0 1.487.32 2.611.959 3.373s1.484 1.143 2.537 1.143zm-6.963 9.83V12.622h3.439v2.202c.395-.753.991-1.355 1.79-1.807.799-.451 1.706-.677 2.72-.677 1.203 0 2.26.292 3.172.875.912.583 1.621 1.406 2.129 2.47.507 1.062.76 2.337.76 3.823 0 1.468-.253 2.743-.76 3.825-.508 1.081-1.213 1.914-2.117 2.497-.9.583-1.964.875-3.183.875-.978 0-1.856-.212-2.636-.635-.78-.423-1.377-.992-1.79-1.707v7.14l-3.524 2.352zM128.8 14.739c-1.034 0-1.87.32-2.51.96-.639.639-1.024 1.504-1.155 2.596h6.935c-.075-1.148-.39-2.028-.945-2.64-.554-.61-1.33-.916-2.326-.916m.508 11.966c-1.56 0-2.906-.292-4.032-.875-1.127-.583-1.999-1.411-2.607-2.484-.611-1.072-.917-2.342-.917-3.81 0-1.43.297-2.68.889-3.753a6.53 6.53 0 0 1 2.452-2.526c1.043-.612 2.232-.917 3.567-.917 1.952 0 3.5.62 4.637 1.862 1.135 1.242 1.706 2.935 1.706 5.08v1.045h-9.867c.263 2.464 1.672 3.697 4.228 3.697.77 0 1.541-.118 2.312-.353a6.349 6.349 0 0 0 2.114-1.115l.987 2.37c-.658.546-1.485.98-2.48 1.299-1 .32-1.993.48-2.99.48M144.164 26.705c-1.447 0-2.706-.297-3.778-.89a6.117 6.117 0 0 1-2.48-2.525c-.583-1.092-.874-2.371-.874-3.839 0-1.467.29-2.732.873-3.795a6.003 6.003 0 0 1 2.481-2.456c1.072-.574 2.33-.86 3.778-.86.883 0 1.757.14 2.622.423.862.282 1.579.677 2.14 1.185l-1.04 2.455a5.171 5.171 0 0 0-1.65-.987 5.075 5.075 0 0 0-1.762-.339c-1.224 0-2.166.381-2.833 1.143-.667.762-1 1.849-1 3.26 0 1.392.333 2.488 1 3.288.667.8 1.61 1.199 2.833 1.199.543 0 1.126-.113 1.748-.339a4.896 4.896 0 0 0 1.663-1.016l1.041 2.484c-.561.49-1.283.88-2.157 1.171a8.174 8.174 0 0 1-2.605.438M150.796 8.498l3.524-2.352v6.472h4.175v2.653h-4.175v5.816c0 .903.198 1.58.592 2.032.395.452 1.037.677 1.92.677.263 0 .533-.032.815-.098.284-.066.576-.137.876-.212l.536 2.596c-.338.189-.766.34-1.283.452a7.08 7.08 0 0 1-1.51.17c-3.646 0-5.47-1.807-5.47-5.42V8.499z" fill="#8B9916"/>
        <g transform="translate(159.548 12.339)">
            <mask id="jkdmebg41b" fill="#fff">
                <use xlink:href="#56hlrnbpua"/>
            </mask>
            <path d="M7.048 11.684c1.052 0 1.898-.381 2.537-1.143.64-.762.959-1.886.959-3.373 0-1.505-.32-2.629-.959-3.372C8.946 3.053 8.1 2.68 7.048 2.68c-1.053 0-1.9.372-2.537 1.115-.642.743-.959 1.867-.959 3.372 0 1.487.317 2.611.959 3.373.636.762 1.484 1.143 2.537 1.143m0 2.681c-1.428 0-2.669-.292-3.721-.875a6.095 6.095 0 0 1-2.453-2.497C.29 9.91 0 8.636 0 7.168c0-1.467.291-2.737.874-3.81A6.117 6.117 0 0 1 3.327.875C4.379.292 5.62 0 7.048 0c1.426 0 2.669.292 3.721.875a6.117 6.117 0 0 1 2.453 2.483c.583 1.073.874 2.343.874 3.81 0 1.468-.291 2.743-.874 3.825a6.095 6.095 0 0 1-2.453 2.497c-1.052.583-2.295.875-3.721.875" fill="#8B9916" mask="url(#jkdmebg41b)"/>
        </g>
        <g>
            <mask id="l4cfrl55ed" fill="#fff">
                <use xlink:href="#mi1zoyk2cc"/>
            </mask>
            <path d="M39.957 20c0 11.047-8.944 20-19.979 20C8.944 40 0 31.047 0 20S8.944 0 19.978 0c11.035 0 19.98 8.953 19.98 20" fill="#0B0B45" mask="url(#l4cfrl55ed)"/>
        </g>
        <path fill="url(#b7uvfbacje)" d="M30.828 29.103h-7.046L9.13 10.898h7.008z"/>
        <path d="M16.175 25.577a3.526 3.526 0 0 1-3.524 3.527 3.525 3.525 0 0 1-3.522-3.527 3.525 3.525 0 0 1 3.522-3.528 3.526 3.526 0 0 1 3.524 3.528" fill="#92C5EB"/>
        <path fill="#8B9916" d="m19.978 10.897 10.683 13.24v-13.24z"/>
    </g>
</svg>
